<svg width="239" height="67" viewBox="0 0 239 67" fill="none" xmlns="http://www.w3.org/2000/svg">
<path fill-rule="evenodd" clip-rule="evenodd" d="M5.31075 32.1516C3.63824 38.9001 3.65826 41.5662 6.66521 38.4764C5.47755 45.6868 -0.396235 40.357 5.31075 32.1516Z" fill="#024413"/>
<path fill-rule="evenodd" clip-rule="evenodd" d="M5.31075 32.1516C4.47449 35.5247 4.06082 37.8789 4.23429 39.0025C4.40555 40.1261 5.16173 40.0213 6.66521 38.4764C5.47755 45.6868 -0.396235 40.357 5.31075 32.1516ZM4.56791 33.9464C4.02523 36.3911 3.78726 38.1312 3.9296 39.0572C3.99854 39.5143 4.16535 39.8047 4.38553 39.9547C4.61684 40.1142 4.93043 40.1403 5.33076 39.957C5.56207 39.8499 5.83563 39.6666 6.15145 39.4C5.92904 40.2141 5.63324 40.7854 5.30185 41.1425C5.02384 41.4401 4.72359 41.571 4.43669 41.5258C4.14311 41.4805 3.87399 41.2592 3.65826 40.9116C3.32465 40.3736 3.12893 39.55 3.16896 38.5121C3.22012 37.2529 3.62267 35.6913 4.57013 33.9464H4.56791Z" fill="#024413"/>
<path fill-rule="evenodd" clip-rule="evenodd" d="M35.1651 58.6426L33.3267 62.4352L37.1339 64.8239L38.7114 62.5773C39.0008 62.0823 39.3329 61.3436 38.5785 60.7496L35.1651 58.6426Z" fill="#024413" stroke="#024413" stroke-width="0.722667" stroke-miterlimit="1.5" stroke-linecap="round" stroke-linejoin="round"/>
<path fill-rule="evenodd" clip-rule="evenodd" d="M29.4525 58.6426L27.6138 62.4352L31.4218 64.8239L32.9972 62.5773C33.2891 62.0823 33.6189 61.3436 32.8667 60.7496L29.4525 58.6426Z" fill="#024413" stroke="#024413" stroke-width="0.722667" stroke-miterlimit="1.5" stroke-linecap="round" stroke-linejoin="round"/>
<path fill-rule="evenodd" clip-rule="evenodd" d="M76.3636 9.63321C75.8574 6.12697 74.7113 3.12064 73.1295 0.452901C68.3453 -1.25364 74.9887 21.2518 74.0737 38.5648C72.9543 42.7119 67.3816 42.8868 60.7382 46.1113C53.1116 51.6831 47.6655 60.6226 43.0905 55.4189C42.2242 51.9308 42.7912 48.0474 44.9765 43.7208C39.0193 53.7328 42.3556 62.5495 49.4225 59.9477C56.1973 57.4526 56.3993 51.19 66.2598 47.9974C81.2841 43.1345 77.1058 31.7569 74.7453 8.12437L76.3636 9.63321Z" fill="#024413" stroke="#024413" stroke-width="0.722667" stroke-miterlimit="1.5" stroke-linecap="round" stroke-linejoin="round"/>
<path fill-rule="evenodd" clip-rule="evenodd" d="M82.8411 15.4201C82.5328 12.4162 80.8859 8.66404 79.0962 5.66008C73.5967 5.57193 81.5051 23.6635 80.2066 51.5783C83.6883 44.5714 82.5503 28.8509 80.4824 13.917L82.8411 15.4201Z" fill="#024413"/>
<path fill-rule="evenodd" clip-rule="evenodd" d="M82.8411 15.4201C82.5328 12.4162 80.8859 8.66404 79.0962 5.66008C73.5967 5.57193 81.5051 23.6635 80.2066 51.5783C83.6883 44.5714 82.5503 28.8509 80.4824 13.917L82.8411 15.4201ZM82.4024 14.7578L80.6829 13.6616C80.5701 13.5915 80.4222 13.5847 80.3044 13.6503C80.1866 13.7136 80.1214 13.8334 80.139 13.9554C81.3772 22.8995 82.2821 32.1261 82.0565 39.5851C81.9362 43.5316 81.5051 46.9809 80.6303 49.6232C81.2218 31.0502 77.8479 17.0634 77.502 10.2485C77.4293 8.79061 77.4895 7.67176 77.7777 6.92133C77.9933 6.36078 78.3442 6.03529 78.8932 5.98104C80.4849 8.6889 81.9512 11.9799 82.4024 14.7578Z" fill="#024413"/>
<path fill-rule="evenodd" clip-rule="evenodd" d="M102.836 45.3971L101.74 47.5383L83.7925 54.2276C83.8692 53.3359 84.3048 52.4441 86.3963 51.5524L102.836 45.3971Z" fill="#024413"/>
<path fill-rule="evenodd" clip-rule="evenodd" d="M102.836 45.3971L101.74 47.5383L83.7925 54.2276C83.8692 53.3359 84.3048 52.4441 86.3963 51.5524L102.836 45.3971ZM102.136 46.0182L101.492 47.2725L84.2529 53.696C84.4806 53.0845 85.0721 52.4828 86.525 51.8617L102.136 46.0182Z" fill="#024413"/>
<path fill-rule="evenodd" clip-rule="evenodd" d="M62.8446 42.7474L61.8053 44.675L44.7529 50.6949C44.8258 49.8921 45.242 49.0893 47.2266 48.2865L62.8446 42.7474Z" fill="#024413"/>
<path fill-rule="evenodd" clip-rule="evenodd" d="M62.8446 42.7474L61.8053 44.675L44.7529 50.6949C44.8258 49.8921 45.242 49.0893 47.2266 48.2865L62.8446 42.7474ZM62.1791 43.3066L61.5701 44.4335L45.1926 50.2184C45.409 49.6658 45.971 49.1241 47.3489 48.565C47.3512 48.565 62.1791 43.3066 62.1791 43.3066Z" fill="#024413"/>
<path fill-rule="evenodd" clip-rule="evenodd" d="M21.9003 55.9938L20.8038 58.135L2.85645 64.8243C2.93318 63.9326 3.3688 63.0408 5.46031 62.1491L21.9003 55.9938Z" fill="#024413"/>
<path fill-rule="evenodd" clip-rule="evenodd" d="M21.9003 55.9938L20.8038 58.135L2.85645 64.8243C2.93318 63.9326 3.3688 63.0408 5.46031 62.1491L21.9003 55.9938ZM21.1998 56.6149L20.5587 57.8691L3.3193 64.2926C3.54454 63.6812 4.1361 63.0795 5.58901 62.4584L21.1998 56.6149Z" fill="#024413"/>
<path fill-rule="evenodd" clip-rule="evenodd" d="M105.989 12.5499C106.163 11.0939 106.709 9.94163 110.303 10.087C113.331 10.2107 113.97 11.6971 112.681 12.8493C110.483 14.8152 107.692 15.3295 105.693 15.3729L110.897 12.73L105.989 12.5499Z" fill="#024413"/>
<path fill-rule="evenodd" clip-rule="evenodd" d="M105.989 12.5499C106.163 11.0939 106.709 9.94163 110.303 10.087C113.331 10.2107 113.97 11.6971 112.681 12.8493C110.483 14.8152 107.692 15.3295 105.693 15.3729L110.897 12.73L105.989 12.5499ZM106.405 12.2634C106.494 11.7405 106.663 11.2761 107.114 10.9398C107.673 10.5232 108.632 10.3192 110.284 10.3865C111.625 10.4429 112.455 10.7619 112.788 11.2327C113.092 11.6602 112.925 12.1853 112.404 12.6475C110.816 14.0688 108.904 14.7002 107.235 14.9433L111.096 12.9838C111.233 12.9144 111.297 12.7799 111.257 12.654C111.217 12.526 111.077 12.4349 110.913 12.4305L106.405 12.2634Z" fill="#024413"/>
<path fill-rule="evenodd" clip-rule="evenodd" d="M28.8635 24.0301C29.0354 22.5763 29.5832 21.4219 33.1736 21.5673C36.2028 21.691 36.842 23.1774 35.5529 24.3296C33.3563 26.2955 30.5634 26.812 28.5654 26.8532L33.7671 24.2102L28.8635 24.0301Z" fill="#024413"/>
<path fill-rule="evenodd" clip-rule="evenodd" d="M28.8635 24.0301C29.0354 22.5763 29.5832 21.4219 33.1736 21.5673C36.2028 21.691 36.842 23.1774 35.5529 24.3296C33.3563 26.2955 30.5634 26.812 28.5654 26.8532L33.7671 24.2102L28.8635 24.0301ZM29.2771 23.7437C29.3657 23.2229 29.5376 22.7564 29.9887 22.4201C30.5473 22.0034 31.5033 21.8016 33.1549 21.8689C34.4949 21.9231 35.3247 22.2421 35.6604 22.713C35.9638 23.1405 35.7946 23.6656 35.2763 24.13C33.6893 25.5491 31.7772 26.1805 30.1096 26.4236L33.9659 24.4641C34.1028 24.3947 34.1699 24.2601 34.127 24.1343C34.0867 24.0063 33.9471 23.9151 33.7859 23.9108L29.2771 23.7437Z" fill="#024413"/>
<path fill-rule="evenodd" clip-rule="evenodd" d="M133.307 8.30844L132.893 9.53214L114.284 16.2559C114.142 15.2531 114.7 14.3673 116.627 13.8107L133.307 8.30844Z" fill="#024413" stroke="#024413" stroke-width="0.722667" stroke-miterlimit="1.5" stroke-linecap="round" stroke-linejoin="round"/>
<path fill-rule="evenodd" clip-rule="evenodd" d="M69.5101 7.42584L69.1174 8.64734L51.4384 15.3733C51.3035 14.3683 51.8334 13.4825 53.6645 12.9281L69.5101 7.42584Z" fill="#024413" stroke="#024413" stroke-width="0.722667" stroke-miterlimit="1.5" stroke-linecap="round" stroke-linejoin="round"/>
<path fill-rule="evenodd" clip-rule="evenodd" d="M145.284 14.7364C145.502 13.0272 144.529 8.96825 142.212 4.77716C138.145 7.68289 145.205 31.4028 143.084 51.5788C146.879 46.4237 145.937 42.244 143.949 13.9866C144.524 13.7701 145.002 14.0276 145.284 14.7364Z" fill="#024413"/>
<path fill-rule="evenodd" clip-rule="evenodd" d="M145.284 14.7364C145.502 13.0272 144.529 8.96825 142.212 4.77716C138.145 7.68289 145.205 31.4028 143.084 51.5788C146.879 46.4237 145.937 42.244 143.949 13.9866C144.524 13.7701 145.002 14.0276 145.284 14.7364ZM144.991 13.8111C144.955 13.7838 144.916 13.761 144.878 13.7382C144.574 13.5696 144.224 13.5468 143.841 13.6903C143.711 13.7405 143.629 13.8704 143.638 14.0094C144.632 28.1278 145.365 36.2297 145.374 41.4463C145.383 45.8927 144.864 48.2059 143.512 50.3937C144.711 36.567 141.852 21.325 141.32 12.3366C141.18 9.99608 141.198 8.08855 141.498 6.75078C141.64 6.11494 141.838 5.61583 142.129 5.27854C143.943 8.66058 144.876 11.9082 144.991 13.8111Z" fill="#024413"/>
<path fill-rule="evenodd" clip-rule="evenodd" d="M158.018 17.2578C158.35 14.9122 156.789 13.6286 155.887 15.1479C154.704 17.1459 154.406 18.9962 154.29 20.8156L152.691 16.5982C151.642 14.705 149.581 15.2122 149.497 16.9935C149.432 18.3509 150.517 18.9629 151.76 18.4295C152.691 19.8416 153.36 21.4705 153.756 23.3208C154.856 23.0589 155.411 21.2419 155.62 18.4295C155.899 16.3505 156.763 16.1743 158.018 17.2578Z" fill="#024413"/>
<path fill-rule="evenodd" clip-rule="evenodd" d="M158.018 17.2578C158.35 14.9122 156.789 13.6286 155.887 15.1479C154.704 17.1459 154.406 18.9962 154.29 20.8156L152.691 16.5982C151.642 14.705 149.581 15.2122 149.497 16.9935C149.432 18.3509 150.517 18.9629 151.76 18.4295C152.691 19.8416 153.36 21.4705 153.756 23.3208C154.856 23.0589 155.411 21.2419 155.62 18.4295C155.899 16.3505 156.763 16.1743 158.018 17.2578ZM157.732 16.6268C157.501 16.4768 157.285 16.3744 157.088 16.322C156.806 16.2458 156.551 16.26 156.325 16.3529C156.104 16.4434 155.904 16.6149 155.738 16.884C155.539 17.2102 155.382 17.7032 155.291 18.3866C155.291 18.3938 155.288 18.4009 155.288 18.4057C155.166 20.0393 154.933 21.3276 154.528 22.1516C154.375 22.4635 154.199 22.7064 153.992 22.8541C153.578 21.1252 152.924 19.5916 152.039 18.2509C151.95 18.1151 151.777 18.0651 151.628 18.127C151.125 18.3438 150.654 18.3485 150.315 18.139C149.985 17.9389 149.805 17.5436 149.829 17.0102C149.862 16.3029 150.269 15.8338 150.788 15.7433C151.332 15.6504 151.953 15.9648 152.388 16.7363L153.978 20.9323C154.033 21.0776 154.185 21.1657 154.338 21.1419C154.495 21.1204 154.613 20.9918 154.622 20.837C154.735 19.0629 155.022 17.2602 156.174 15.3146C156.34 15.036 156.52 14.8717 156.717 14.8288C156.883 14.7931 157.044 14.8646 157.189 14.9955C157.516 15.2956 157.735 15.8743 157.732 16.6268Z" fill="#024413"/>
<path fill-rule="evenodd" clip-rule="evenodd" d="M93.2694 17.2578C93.6013 14.9122 92.0379 13.6286 91.1384 15.1479C89.955 17.1459 89.6568 18.9962 89.5414 20.8156L87.9419 16.5982C86.8933 14.705 84.8321 15.2122 84.7479 16.9935C84.683 18.3509 85.7677 18.9629 87.0111 18.4295C87.9419 19.8416 88.6106 21.4705 89.0074 23.3208C90.1042 23.0589 90.6622 21.2419 90.8714 18.4295C91.148 16.3505 92.0139 16.1743 93.2694 17.2578Z" fill="#024413"/>
<path fill-rule="evenodd" clip-rule="evenodd" d="M93.2694 17.2578C93.6013 14.9122 92.0379 13.6286 91.1384 15.1479C89.955 17.1459 89.6568 18.9962 89.5414 20.8156L87.9419 16.5982C86.8933 14.705 84.8321 15.2122 84.7479 16.9935C84.683 18.3509 85.7677 18.9629 87.0111 18.4295C87.9419 19.8416 88.6106 21.4705 89.0074 23.3208C90.1042 23.0589 90.6622 21.2419 90.8714 18.4295C91.148 16.3505 92.0139 16.1743 93.2694 17.2578ZM92.9807 16.6268C92.7522 16.4768 92.5358 16.3744 92.3386 16.322C92.0572 16.2458 91.8022 16.26 91.5761 16.3529C91.3548 16.4434 91.1552 16.6149 90.9893 16.884C90.7896 17.2102 90.6333 17.7032 90.5419 18.3866C90.5419 18.3938 90.5395 18.4009 90.5395 18.4057C90.4168 20.0393 90.1835 21.3276 89.7771 22.1516C89.6231 22.4635 89.45 22.7064 89.2431 22.8541C88.8294 21.1252 88.1752 19.5916 87.2901 18.2509C87.2011 18.1151 87.028 18.0651 86.8789 18.127C86.3762 18.3438 85.9048 18.3485 85.5632 18.139C85.2361 17.9389 85.0558 17.5436 85.0798 17.0102C85.1135 16.3029 85.5175 15.8338 86.0395 15.7433C86.583 15.6504 87.2036 15.9648 87.6389 16.7363L89.2287 20.9323C89.284 21.0776 89.4331 21.1657 89.5895 21.1419C89.7458 21.1204 89.8637 20.9918 89.8733 20.837C89.9863 19.0629 90.2725 17.2602 91.4246 15.3146C91.5906 15.036 91.7709 14.8717 91.9682 14.8288C92.1341 14.7931 92.2953 14.8646 92.4396 14.9955C92.7667 15.2956 92.9831 15.8743 92.9807 16.6268Z" fill="#024413"/>
<path fill-rule="evenodd" clip-rule="evenodd" d="M45.6599 18.1404C45.9918 15.7948 44.4309 14.5112 43.5289 16.0305C42.3456 18.0285 42.0473 19.8788 41.9319 21.7006L40.3348 17.4808C39.2838 15.5876 37.2225 16.0948 37.1383 17.8761C37.0758 19.2335 38.1605 19.8455 39.4016 19.3145C40.3324 20.7242 41.0011 22.3531 41.4003 24.2034C42.4971 23.9415 43.0527 22.1245 43.2643 19.3145C43.5409 17.2331 44.4068 17.0569 45.6599 18.1404Z" fill="#024413"/>
<path fill-rule="evenodd" clip-rule="evenodd" d="M45.6599 18.1404C45.9918 15.7948 44.4309 14.5112 43.5289 16.0305C42.3456 18.0285 42.0473 19.8788 41.9319 21.7006L40.3348 17.4808C39.2838 15.5876 37.2225 16.0948 37.1383 17.8761C37.0758 19.2335 38.1605 19.8455 39.4016 19.3145C40.3324 20.7242 41.0011 22.3531 41.4003 24.2034C42.4971 23.9415 43.0527 22.1245 43.2643 19.3145C43.5409 17.2331 44.4068 17.0569 45.6599 18.1404ZM45.3737 17.5094C45.1428 17.3594 44.9287 17.2593 44.7291 17.2046C44.4501 17.1284 44.1952 17.1426 43.9667 17.2355C43.7478 17.326 43.5482 17.4975 43.3822 17.7666C43.1802 18.0928 43.0238 18.5858 42.9324 19.2692C42.9324 19.2764 42.9324 19.2835 42.93 19.2883C42.8098 20.9219 42.5741 22.2102 42.17 23.0342C42.0161 23.3485 41.8429 23.589 41.6336 23.7367C41.2199 22.0078 40.5657 20.4742 39.6806 19.1335C39.5916 18.9977 39.4184 18.9477 39.2693 19.0096C38.7666 19.2263 38.2952 19.2311 37.9561 19.0239C37.6266 18.8215 37.4462 18.4262 37.4726 17.8928C37.5063 17.1855 37.9104 16.7164 38.4323 16.6259C38.9735 16.533 39.594 16.8474 40.0318 17.6189L41.6192 21.8149C41.6745 21.9602 41.826 22.0483 41.98 22.0268C42.1363 22.003 42.2542 21.8744 42.2638 21.7196C42.3768 19.9479 42.6655 18.1428 43.8175 16.1972C43.9811 15.921 44.1639 15.7543 44.3587 15.7114C44.5247 15.6757 44.6882 15.7472 44.8301 15.8781C45.1572 16.1782 45.3761 16.7569 45.3737 17.5094Z" fill="#024413"/>
<path fill-rule="evenodd" clip-rule="evenodd" d="M186.199 24.2047C185.656 21.6639 183.645 19.3628 181.625 18.0226C179.945 19.4535 180.416 21.9175 181.072 24.8492C182.078 29.3677 183.713 31.364 184.95 34.5097C187.11 39.9938 181.074 40.6592 178.161 37.2133C174.225 32.5599 175.58 24.5653 172.618 18.7974C171.634 19.8351 170.923 21.3196 170.678 23.5625C172.683 25.5705 172.941 35.0681 171.234 37.7275C169.251 40.8151 163.984 41.555 161.118 37.7275C158.314 33.9885 163.083 24.7282 161.671 23.3042C160.252 21.871 157.868 24.0069 156.822 28.5836C153.583 42.7346 150.133 41.6085 148.924 36.9551C148.191 34.1444 148.361 31.6106 148.231 27.8111C141.251 37.3297 150.308 49.0982 155.298 41.206C158.104 36.7643 157.358 30.6683 159.593 27.8111C158.216 33.7116 157.828 39.1259 159.593 41.5922C162.152 45.173 167.444 45.6965 171.094 41.8505C172.488 40.3823 173.186 39.0677 173.865 36.3129C174.243 38.279 175.357 39.5819 176.361 40.9477C178.824 44.3052 184.744 45.1497 186.925 40.6918C188.76 36.9411 186.467 31.82 183.565 23.9487C184.444 23.6509 185.32 23.6439 186.199 24.2047Z" fill="#024413"/>
<path fill-rule="evenodd" clip-rule="evenodd" d="M186.199 24.2047C185.656 21.6639 183.645 19.3628 181.625 18.0226C179.945 19.4535 180.416 21.9175 181.072 24.8492C182.078 29.3677 183.713 31.364 184.95 34.5097C187.11 39.9938 181.074 40.6592 178.161 37.2133C174.225 32.5599 175.58 24.5653 172.618 18.7974C171.634 19.8351 170.923 21.3196 170.678 23.5625C172.683 25.5705 172.941 35.0681 171.234 37.7275C169.251 40.8151 163.984 41.555 161.118 37.7275C158.314 33.9885 163.083 24.7282 161.671 23.3042C160.252 21.871 157.868 24.0069 156.822 28.5836C153.583 42.7346 150.133 41.6085 148.924 36.9551C148.191 34.1444 148.361 31.6106 148.231 27.8111C141.251 37.3297 150.308 49.0982 155.298 41.206C158.104 36.7643 157.358 30.6683 159.593 27.8111C158.216 33.7116 157.828 39.1259 159.593 41.5922C162.152 45.173 167.444 45.6965 171.094 41.8505C172.488 40.3823 173.186 39.0677 173.865 36.3129C174.243 38.279 175.357 39.5819 176.361 40.9477C178.824 44.3052 184.744 45.1497 186.925 40.6918C188.76 36.9411 186.467 31.82 183.565 23.9487C184.444 23.6509 185.32 23.6439 186.199 24.2047ZM185.676 23.5881C184.932 23.3322 184.189 23.395 183.448 23.6439C183.27 23.7044 183.175 23.8859 183.237 24.0535C184.97 28.7534 186.489 32.4692 187.027 35.4962C187.378 37.4507 187.318 39.1119 186.609 40.5568C184.552 44.7635 178.972 43.9305 176.646 40.7662C175.67 39.4353 174.576 38.1719 174.208 36.2547C174.178 36.1035 174.038 35.9941 173.875 35.9895C173.71 35.9872 173.564 36.0919 173.527 36.2408C172.866 38.9235 172.19 40.2078 170.833 41.6364C167.356 45.301 162.319 44.8217 159.881 41.413C159.203 40.4661 158.87 39.0631 158.78 37.3599C158.644 34.7237 159.113 31.3896 159.931 27.8809C159.966 27.732 159.884 27.5807 159.733 27.5179C159.586 27.4551 159.408 27.4993 159.313 27.6226C158.392 28.7976 157.951 30.5054 157.583 32.425C157.052 35.1891 156.662 38.4116 154.997 41.0431C154.068 42.5136 153.002 43.2698 151.921 43.4396C150.857 43.6048 149.8 43.1976 148.881 42.4042C146.105 40.0147 144.613 34.2049 147.915 28.8837C147.993 32.1388 147.92 34.4701 148.586 37.0318C148.861 38.0858 149.249 38.9653 149.718 39.5517C150.071 39.9914 150.474 40.273 150.902 40.373C151.603 40.5382 152.429 40.2404 153.27 39.1747C154.491 37.6321 155.851 34.3817 157.16 28.651C157.766 26.0102 158.805 24.2024 159.856 23.4857C160.149 23.2856 160.437 23.1786 160.712 23.1856C160.968 23.1926 161.203 23.3089 161.416 23.523C161.491 23.5974 161.531 23.7091 161.558 23.8464C161.593 24.0348 161.601 24.2582 161.583 24.5165C161.533 25.3657 161.255 26.5361 160.94 27.8483C160.457 29.8702 159.886 32.2202 159.871 34.2654C159.861 35.687 160.124 36.9667 160.832 37.9137C163.864 41.9598 169.434 41.1571 171.529 37.8927C172.578 36.2617 172.929 32.1178 172.578 28.6208C172.35 26.3499 171.815 24.3559 171.039 23.4578C171.256 21.6453 171.79 20.3563 172.536 19.407C173.815 22.1618 174.19 25.3797 174.681 28.4719C175.214 31.8316 175.885 35.0448 177.888 37.4134C178.999 38.728 180.544 39.4726 181.953 39.6238C182.934 39.7285 183.851 39.5447 184.537 39.084C185.663 38.3255 186.216 36.7852 185.278 34.398C184.043 31.2686 182.414 29.2816 181.41 24.784C181.089 23.3438 180.809 22.0176 180.819 20.8752C180.829 19.9096 181.044 19.0813 181.66 18.4484C183.355 19.635 185 21.4987 185.676 23.5881Z" fill="#024413"/>
<path fill-rule="evenodd" clip-rule="evenodd" d="M191.351 14.5688C190.912 11.3076 189.616 8.43055 188.09 5.65976C183.788 9.98997 190.49 25.0259 189.177 50.6953C192.505 45.5447 191.646 31.8263 189.449 13.0862C190.156 13.6467 190.824 14.171 191.351 14.5688Z" fill="#024413" stroke="#024413" stroke-width="0.722667" stroke-miterlimit="1.5" stroke-linecap="round" stroke-linejoin="round"/>
<path fill-rule="evenodd" clip-rule="evenodd" d="M229.412 48.9293L227.574 52.1809L231.383 54.2276L232.958 52.3006C233.249 51.8786 233.579 51.2457 232.825 50.7367L229.412 48.9293Z" fill="#024413" stroke="#024413" stroke-width="0.722667" stroke-miterlimit="1.5" stroke-linecap="round" stroke-linejoin="round"/>
<path fill-rule="evenodd" clip-rule="evenodd" d="M87.8425 29.502L85.6973 33.2946L90.14 35.6833L91.978 33.4342C92.3184 32.9417 92.7032 32.203 91.8257 31.609L87.8425 29.502Z" fill="#024413" stroke="#024413" stroke-width="0.722667" stroke-miterlimit="1.5" stroke-linecap="round" stroke-linejoin="round"/>
<path fill-rule="evenodd" clip-rule="evenodd" d="M212.32 57.76C212.362 58.4015 212.384 59.0655 211.797 59.2517L194.247 65.7075C194.493 64.8169 194.937 64.0588 195.831 63.5967L212.32 57.76Z" fill="#024413" stroke="#024413" stroke-width="0.722667" stroke-miterlimit="1.5" stroke-linecap="round" stroke-linejoin="round"/>
<path fill-rule="evenodd" clip-rule="evenodd" d="M213.052 25.6156C212.276 26.0192 211.949 26.5519 211.641 27.4995C213.397 27.5834 214.759 27.5403 215.745 27.3726C215.428 28.4698 213.756 29.4559 211.387 30.3854C213.923 30.136 216.991 30.4285 218.052 25.8673C216.556 24.9605 214.62 24.8018 213.052 25.6156Z" fill="#024413"/>
<path fill-rule="evenodd" clip-rule="evenodd" d="M213.052 25.6156C212.276 26.0192 211.949 26.5519 211.641 27.4995C213.397 27.5834 214.759 27.5403 215.745 27.3726C215.428 28.4698 213.756 29.4559 211.387 30.3854C213.923 30.136 216.991 30.4285 218.052 25.8673C216.556 24.9605 214.62 24.8018 213.052 25.6156ZM213.202 25.8945C214.601 25.1668 216.315 25.2733 217.686 26.0192C217.383 27.2003 216.936 28.0209 216.389 28.5922C215.727 29.2882 214.916 29.6101 214.071 29.7824C213.805 29.8391 213.534 29.8776 213.26 29.9093C213.937 29.5761 214.509 29.236 214.956 28.8846C215.537 28.429 215.91 27.9506 216.053 27.4587C216.083 27.3544 216.056 27.2433 215.984 27.164C215.91 27.0824 215.799 27.0461 215.69 27.0643C214.803 27.2139 213.605 27.2592 212.086 27.2025C212.327 26.5859 212.619 26.196 213.202 25.8945Z" fill="#024413"/>
<path fill-rule="evenodd" clip-rule="evenodd" d="M190.813 57.3622C190.739 56.8184 191.059 56.4432 191.798 55.9938C192.689 56.0477 193.709 56.2118 194.098 56.8656C194.454 57.4611 194.148 57.7981 193.442 58.1082C192.543 58.5036 191.905 58.5845 191.306 58.7306C191.318 58.7688 192.475 62.1437 191.798 64.8243C191.736 62.8537 190.828 61.4 190.484 59.353C190.392 58.8025 190.389 58.3441 190.976 57.9846C191.605 57.6004 192.021 57.6947 192.291 57.3622C192.261 56.8229 191.659 56.9532 190.813 57.3622Z" fill="#024413" stroke="#024413" stroke-width="0.722667" stroke-miterlimit="1.5" stroke-linecap="round" stroke-linejoin="round"/>
<path fill-rule="evenodd" clip-rule="evenodd" d="M107.972 46.0163C107.898 45.4181 108.219 45.0078 108.958 44.5135C109.848 44.5728 110.865 44.7533 111.257 45.47C111.613 46.125 111.308 46.4958 110.601 46.8393C109.702 47.2719 109.064 47.3633 108.465 47.5215C108.477 47.5635 109.634 51.2759 108.958 54.2271C108.895 52.0594 107.987 50.4603 107.643 48.2062C107.551 47.6031 107.548 47.0964 108.136 46.7009C108.765 46.2783 109.18 46.3846 109.45 46.0163C109.42 45.4256 108.815 45.5664 107.972 46.0163Z" fill="#024413" stroke="#024413" stroke-width="0.722667" stroke-miterlimit="1.5" stroke-linecap="round" stroke-linejoin="round"/>
<path fill-rule="evenodd" clip-rule="evenodd" d="M24.0837 51.1803C24.028 50.6343 24.2707 50.2613 24.8252 49.8119C25.4933 49.8658 26.2571 50.0299 26.5489 50.6815C26.8161 51.2769 26.5889 51.614 26.0567 51.9263C25.3842 52.3195 24.9054 52.4026 24.4533 52.5465C24.4623 52.5846 25.333 55.9596 24.8252 58.6424C24.7762 56.6718 24.097 55.2181 23.8387 53.1689C23.7697 52.6206 23.7675 52.1622 24.2084 51.8005C24.6783 51.4162 24.99 51.5129 25.1949 51.1803C25.1704 50.641 24.7183 50.7714 24.0837 51.1803Z" fill="#024413" stroke="#024413" stroke-width="0.722667" stroke-miterlimit="1.5" stroke-linecap="round" stroke-linejoin="round"/>
<path fill-rule="evenodd" clip-rule="evenodd" d="M221.397 48.0458C222.026 48.8183 222.004 50.1537 221.397 50.6961C220.621 51.3866 219.848 51.3729 219.072 50.6961C218.304 52.6445 215.454 51.3 214.014 51.7056C211.71 52.3528 209.613 56.7464 205.673 56.8763C209.22 55.468 211.989 50.7713 214.698 50.3178C215.768 50.1651 216.857 50.1628 217.978 50.4431C218.287 49.837 218.534 49.4564 218.937 48.5517C219.109 50.5571 221.211 50.2084 221.397 48.0458Z" fill="#024413"/>
<path fill-rule="evenodd" clip-rule="evenodd" d="M221.397 48.0458C222.026 48.8183 222.004 50.1537 221.397 50.6961C220.621 51.3866 219.848 51.3729 219.072 50.6961C218.304 52.6445 215.454 51.3 214.014 51.7056C211.71 52.3528 209.613 56.7464 205.673 56.8763C209.22 55.468 211.989 50.7713 214.698 50.3178C215.768 50.1651 216.857 50.1628 217.978 50.4431C218.287 49.837 218.534 49.4564 218.937 48.5517C219.109 50.5571 221.211 50.2084 221.397 48.0458ZM221.488 49.069C221.525 49.2855 221.527 49.5065 221.5 49.7116C221.458 50.017 221.352 50.295 221.159 50.4682C220.848 50.7462 220.547 50.8944 220.236 50.8944C219.924 50.8921 219.618 50.7394 219.307 50.4659C219.223 50.393 219.104 50.3634 218.993 50.3885C218.882 50.4135 218.791 50.4887 218.751 50.589C218.428 51.4094 217.645 51.5005 216.812 51.4641C216.22 51.439 215.597 51.3433 215.039 51.3159C214.622 51.2954 214.236 51.3114 213.913 51.4025C213.414 51.5438 212.917 51.8424 212.416 52.2389C211.72 52.7903 211.003 53.5378 210.215 54.2602C209.512 54.9051 208.748 55.5363 207.879 55.9739C209.213 54.9917 210.443 53.7178 211.613 52.6399C212.703 51.6373 213.725 50.8055 214.75 50.63C215.778 50.4842 216.817 50.4796 217.889 50.7485C218.05 50.7872 218.218 50.7166 218.287 50.5776C218.485 50.1925 218.655 49.8985 218.858 49.5043C219.176 50.0694 219.722 50.2654 220.228 50.172C220.698 50.0854 221.192 49.7162 221.485 49.069H221.488Z" fill="#024413"/>
<mask id="mask0_73_313" style="mask-type:luminance" maskUnits="userSpaceOnUse" x="219" y="53" width="20" height="10">
<path d="M219.822 53.667H239V62.4163H219.822V53.667Z" fill="white"/>
</mask>
<g mask="url(#mask0_73_313)">
<path fill-rule="evenodd" clip-rule="evenodd" d="M239.121 53.836L221.168 60.1405C220.559 60.7808 220.24 61.617 220.353 62.1593L238.44 55.4742C238.804 55.1233 239.015 54.4762 239.121 53.836Z" fill="#024413"/>
<path fill-rule="evenodd" clip-rule="evenodd" d="M239.121 53.836L221.168 60.1405C220.559 60.7808 220.24 61.617 220.353 62.1593L238.44 55.4742C238.804 55.1233 239.015 54.4762 239.121 53.836ZM238.669 54.3327C238.573 54.679 238.438 54.9935 238.241 55.2076C238.241 55.2099 220.687 61.6967 220.687 61.6967C220.753 61.2889 221.004 60.8127 221.37 60.4071L238.669 54.3327Z" fill="#024413"/>
</g>
<path fill-rule="evenodd" clip-rule="evenodd" d="M205.3 15.312C205.922 16.2655 206.785 15.6798 206.6 14.6631C206.368 13.3792 204.962 13.2855 204.392 14.2742C203.547 15.7431 203.31 17.1558 203.225 18.5544L201.794 15.4409C200.51 13.159 198.314 15.6213 199.975 16.7388C200.452 17.0574 200.928 17.041 201.404 16.7388C202.193 17.8305 202.418 18.9504 202.444 20.11C202.479 21.6844 197.476 25.2384 194.247 26.8526C197.511 25.7351 203.885 24.0061 204.002 17.5166C204.03 15.9305 204.753 15.0613 205.3 15.312Z" fill="#024413" stroke="#024413" stroke-width="0.722667" stroke-miterlimit="1.5" stroke-linecap="round" stroke-linejoin="round"/>
<path fill-rule="evenodd" clip-rule="evenodd" d="M22.3777 30.2109C23.0475 31.1009 23.975 30.5542 23.7779 29.6052C23.5251 28.407 22.0113 28.3195 21.3997 29.2423C20.4873 30.6132 20.2321 31.9318 20.1436 33.2372L18.6019 30.3312C17.2195 28.2014 14.8514 30.4995 16.6433 31.5426C17.1563 31.8399 17.6668 31.8246 18.1799 31.5426C19.0291 32.5615 19.2717 33.6045 19.2995 34.6891C19.3374 36.1585 13.9517 39.4755 10.4741 40.9821C13.9871 39.9391 20.8538 38.3254 20.9801 32.2685C21.0105 30.7882 21.7889 29.977 22.3777 30.2109Z" fill="#024413" stroke="#024413" stroke-width="0.722667" stroke-miterlimit="1.5" stroke-linecap="round" stroke-linejoin="round"/>
<path fill-rule="evenodd" clip-rule="evenodd" d="M174 10.9581C174.198 12.4808 175.176 13.3803 175.203 15.129C175.239 17.4165 173.071 18.6538 171.728 16.2659C171.253 18.4209 168.937 18.6469 168.387 16.6448C168.112 15.6449 168.747 14.5948 168.923 13.467C169.041 12.7023 168.315 13.9807 167.585 13.467C167.709 13.015 168.013 12.5333 168.788 11.9695C169.425 12.1955 170.306 13.184 169.589 15.2545C168.933 17.1562 171.04 16.6608 171.06 13.9738C171.064 13.2068 171.159 11.3919 171.728 10.9581C172.334 12.91 172.117 13.3734 172.53 14.6245C173.1 16.3526 174.498 15.9417 174 14.3711C173.665 13.3095 172.969 11.9923 174 10.9581Z" fill="#024413"/>
<path fill-rule="evenodd" clip-rule="evenodd" d="M174 10.9581C174.198 12.4808 175.176 13.3803 175.203 15.129C175.239 17.4165 173.071 18.6538 171.728 16.2659C171.253 18.4209 168.937 18.6469 168.387 16.6448C168.112 15.6449 168.747 14.5948 168.923 13.467C169.041 12.7023 168.315 13.9807 167.585 13.467C167.709 13.015 168.013 12.5333 168.788 11.9695C169.425 12.1955 170.306 13.184 169.589 15.2545C168.933 17.1562 171.04 16.6608 171.06 13.9738C171.064 13.2068 171.159 11.3919 171.728 10.9581C172.334 12.91 172.117 13.3734 172.53 14.6245C173.1 16.3526 174.498 15.9417 174 14.3711C173.665 13.3095 172.969 11.9923 174 10.9581ZM171.629 11.8325C171.963 13.1588 171.859 13.6542 172.211 14.7181C172.412 15.3253 172.713 15.6997 173.003 15.8892C173.261 16.0558 173.52 16.0924 173.744 16.0421C173.978 15.9874 174.184 15.8367 174.312 15.581C174.454 15.2956 174.5 14.8505 174.321 14.2797C174.157 13.7638 173.904 13.1862 173.819 12.6109C173.781 12.3439 173.781 12.079 173.853 11.8211C173.993 12.2617 174.179 12.6635 174.355 13.0789C174.613 13.6793 174.855 14.3049 174.869 15.1336C174.879 15.8641 174.647 16.4759 174.278 16.8571C174.063 17.0809 173.8 17.2224 173.517 17.2407C173.008 17.2749 172.474 16.9211 172.023 16.1175C171.958 16.0011 171.82 15.9349 171.68 15.9531C171.542 15.9714 171.429 16.0718 171.4 16.202C171.2 17.1105 170.644 17.6356 170.048 17.6995C169.478 17.7612 168.933 17.3708 168.711 16.5649C168.587 16.1175 168.677 15.6586 168.809 15.1838C168.957 14.645 169.162 14.088 169.254 13.5127C169.3 13.2159 169.21 13.0698 169.15 13.0105C169.049 12.9123 168.901 12.8575 168.701 12.9328C168.604 12.9671 168.452 13.0767 168.274 13.1748C168.194 13.2182 168.105 13.2639 168.01 13.273C168.148 12.9853 168.394 12.6817 168.831 12.3416C169.343 12.6406 169.838 13.5195 169.273 15.1564C169.131 15.5627 169.106 15.8778 169.145 16.1015C169.181 16.3115 169.275 16.4622 169.389 16.5604C169.604 16.743 169.922 16.7818 170.265 16.5946C170.76 16.3252 171.383 15.4554 171.395 13.9738C171.398 13.5287 171.431 12.7182 171.576 12.0494C171.593 11.9763 171.61 11.9033 171.629 11.8325Z" fill="#024413"/>
<path fill-rule="evenodd" clip-rule="evenodd" d="M127.343 14.4903C127.541 16.013 128.519 16.9125 128.545 18.6612C128.582 20.9486 126.413 22.186 125.071 19.7981C124.596 21.9531 122.28 22.1791 121.73 20.177C121.455 19.1771 122.089 18.127 122.266 16.9992C122.384 16.2345 121.657 17.5129 120.928 16.9992C121.051 16.5495 121.356 16.0655 122.131 15.5017C122.77 15.7277 123.649 16.7184 122.932 18.7867C122.275 20.6884 124.383 20.193 124.402 17.506C124.41 16.739 124.501 14.9241 125.071 14.4903C125.677 16.4422 125.46 16.9056 125.873 18.1567C126.445 19.8848 127.84 19.4739 127.343 17.9033C127.007 16.8417 126.312 15.5245 127.343 14.4903Z" fill="#024413"/>
<path fill-rule="evenodd" clip-rule="evenodd" d="M127.343 14.4903C127.541 16.013 128.519 16.9125 128.545 18.6612C128.582 20.9486 126.413 22.186 125.071 19.7981C124.596 21.9531 122.28 22.1791 121.73 20.177C121.455 19.1771 122.089 18.127 122.266 16.9992C122.384 16.2345 121.657 17.5129 120.928 16.9992C121.051 16.5495 121.356 16.0655 122.131 15.5017C122.77 15.7277 123.649 16.7184 122.932 18.7867C122.275 20.6884 124.383 20.193 124.402 17.506C124.41 16.739 124.501 14.9241 125.071 14.4903C125.677 16.4422 125.46 16.9056 125.873 18.1567C126.445 19.8848 127.84 19.4739 127.343 17.9033C127.007 16.8417 126.312 15.5245 127.343 14.4903ZM124.972 15.367C125.305 16.691 125.204 17.1864 125.554 18.2503C125.754 18.8598 126.059 19.2342 126.348 19.4214C126.604 19.588 126.865 19.6246 127.087 19.5743C127.321 19.5196 127.526 19.3689 127.654 19.1132C127.799 18.8278 127.845 18.3827 127.664 17.8119C127.5 17.296 127.246 16.7184 127.162 16.1431C127.123 15.876 127.123 15.6112 127.196 15.3533C127.336 15.7939 127.522 16.1957 127.7 16.6111C127.959 17.2115 128.2 17.8371 128.212 18.6658C128.224 19.3963 127.992 20.0081 127.623 20.3893C127.406 20.6131 127.145 20.7546 126.863 20.7729C126.351 20.8071 125.82 20.4533 125.366 19.6497C125.301 19.5333 125.163 19.467 125.025 19.4853C124.885 19.5036 124.774 19.604 124.745 19.7341C124.542 20.6427 123.987 21.1678 123.391 21.2317C122.823 21.2934 122.275 20.903 122.053 20.0971C121.93 19.6497 122.022 19.1908 122.152 18.716C122.302 18.1772 122.507 17.6202 122.596 17.0449C122.642 16.7481 122.553 16.602 122.493 16.5427C122.391 16.4445 122.244 16.3897 122.046 16.465C121.947 16.5016 121.797 16.6111 121.616 16.707C121.539 16.7504 121.447 16.7961 121.353 16.8052C121.491 16.5175 121.739 16.2139 122.174 15.8738C122.688 16.1728 123.183 17.0517 122.616 18.6886C122.476 19.0949 122.449 19.41 122.488 19.6337C122.524 19.8437 122.618 19.9944 122.734 20.0926C122.947 20.2752 123.265 20.314 123.608 20.1268C124.103 19.8574 124.726 18.9876 124.738 17.5083C124.74 17.0609 124.774 16.2504 124.919 15.5816C124.936 15.5085 124.953 15.4354 124.972 15.367Z" fill="#024413"/>
<path fill-rule="evenodd" clip-rule="evenodd" d="M63.3964 15.3729C63.6191 16.8958 64.7191 17.7954 64.749 19.542C64.787 21.8321 62.3507 23.0673 60.8405 20.6814C60.3027 22.8367 57.7007 23.0604 57.0814 21.0604C56.7718 20.058 57.4834 19.0101 57.6817 17.8822C57.8148 17.115 56.9999 18.3936 56.1797 17.8822C56.3155 17.4301 56.6577 16.9483 57.5323 16.3844C58.2494 16.6104 59.2407 17.599 58.434 19.6699C57.6926 21.5695 60.0664 21.0763 60.0881 18.3867C60.0936 17.6196 60.1995 15.8044 60.8405 15.3729C61.5195 17.3251 61.2778 17.7885 61.7423 19.0375C62.3832 20.7658 63.9532 20.3571 63.3964 18.784C63.0161 17.7223 62.2366 16.4072 63.3964 15.3729Z" fill="#024413"/>
<path fill-rule="evenodd" clip-rule="evenodd" d="M63.3964 15.3729C63.6191 16.8958 64.7191 17.7954 64.749 19.542C64.787 21.8321 62.3507 23.0673 60.8405 20.6814C60.3027 22.8367 57.7007 23.0604 57.0814 21.0604C56.7718 20.058 57.4834 19.0101 57.6817 17.8822C57.8148 17.115 56.9999 18.3936 56.1797 17.8822C56.3155 17.4301 56.6577 16.9483 57.5323 16.3844C58.2494 16.6104 59.2407 17.599 58.434 19.6699C57.6926 21.5695 60.0664 21.0763 60.0881 18.3867C60.0936 17.6196 60.1995 15.8044 60.8405 15.3729C61.5195 17.3251 61.2778 17.7885 61.7423 19.0375C62.3832 20.7658 63.9532 20.3571 63.3964 18.784C63.0161 17.7223 62.2366 16.4072 63.3964 15.3729ZM60.7291 16.2474C61.104 17.5739 60.9872 18.0671 61.381 19.1311C61.6092 19.7407 61.9487 20.1151 62.2746 20.3023C62.5625 20.469 62.8559 20.5078 63.1084 20.4553C63.3692 20.4028 63.6028 20.2498 63.7467 19.9941C63.907 19.7087 63.9586 19.2658 63.7549 18.695C63.5729 18.1767 63.2877 17.599 63.1926 17.0237C63.1465 16.7588 63.1465 16.4917 63.2307 16.2337V16.236C63.3855 16.6743 63.5946 17.0785 63.7956 17.4917C64.0862 18.0922 64.3579 18.7201 64.3714 19.5466C64.385 20.2772 64.1243 20.8914 63.7087 21.2727C63.467 21.4965 63.1709 21.6357 62.8531 21.6563C62.2773 21.6882 61.6798 21.3366 61.1719 20.5329C61.0958 20.4142 60.9437 20.348 60.7862 20.3686C60.6287 20.3868 60.5037 20.485 60.4711 20.6151C60.2457 21.5239 59.6183 22.0513 58.9501 22.1152C58.3091 22.1746 57.6953 21.7864 57.4454 20.9805C57.3069 20.5307 57.4074 20.0717 57.554 19.5991C57.7224 19.058 57.9533 18.5032 58.0538 17.9278C58.1054 17.631 58.0076 17.4849 57.937 17.4232C57.8229 17.3251 57.66 17.2725 57.4345 17.3456C57.3259 17.3821 57.1548 17.4917 56.9538 17.5899C56.8641 17.6333 56.7636 17.679 56.6577 17.6881C56.8125 17.4004 57.0896 17.0967 57.5812 16.7543C58.157 17.0534 58.7138 17.9347 58.0755 19.5717C57.918 19.9781 57.8908 20.2932 57.9343 20.5147C57.975 20.727 58.081 20.8754 58.2086 20.9736C58.4503 21.1563 58.8089 21.1951 59.1918 21.0101C59.7514 20.7384 60.4521 19.8685 60.463 18.389C60.4684 17.9438 60.5037 17.131 60.6694 16.4643C60.6857 16.3889 60.7074 16.3159 60.7291 16.2474Z" fill="#024413"/>
<path fill-rule="evenodd" clip-rule="evenodd" d="M169.194 4.77716C168.841 5.06838 168.599 5.41654 168.538 5.8676C170.522 6.96023 171.143 8.81704 170.897 10.9585C171.761 8.7207 171.678 6.38217 169.194 4.77716Z" fill="#024413" stroke="#024413" stroke-width="0.722667" stroke-miterlimit="1.5" stroke-linecap="round" stroke-linejoin="round"/>
<path fill-rule="evenodd" clip-rule="evenodd" d="M162.825 46.2797L162.14 47.9653L143.926 54.2272C143.525 53.5051 143.911 52.5415 145.655 51.9391L162.825 46.2797Z" fill="#024413"/>
<path fill-rule="evenodd" clip-rule="evenodd" d="M162.825 46.2797L162.14 47.9653L143.926 54.2272C143.525 53.5051 143.911 52.5415 145.655 51.9391L162.825 46.2797ZM162.254 46.7908L161.87 47.7348L144.136 53.8313C144.032 53.2789 144.515 52.6568 145.777 52.2218L162.254 46.7908Z" fill="#024413"/>
<path fill-rule="evenodd" clip-rule="evenodd" d="M139.972 10.2261C139.536 6.70869 138.524 2.77391 136.359 0.378822C133.596 -0.243901 135.029 15.8579 137.194 37.3727C137.438 39.8134 134.981 41.604 133.164 42.0442C123.824 44.3161 117.47 50.2788 112.744 55.5548C104.882 59.7428 103.12 54.761 107.745 42.8015C102.425 50.516 102.425 59.8773 108.021 60.3518C119.031 61.287 114.451 50.4453 133.581 46.5903C136.81 45.9402 139.862 42.6601 139.972 34.0902L138.165 8.71144L139.972 10.2261Z" fill="#024413"/>
<path fill-rule="evenodd" clip-rule="evenodd" d="M139.972 10.2261C139.536 6.70869 138.524 2.77391 136.359 0.378822C133.596 -0.243901 135.029 15.8579 137.194 37.3727C137.438 39.8134 134.981 41.604 133.164 42.0442C123.824 44.3161 117.47 50.2788 112.744 55.5548C104.882 59.7428 103.12 54.761 107.745 42.8015C102.425 50.516 102.425 59.8773 108.021 60.3518C119.031 61.287 114.451 50.4453 133.581 46.5903C136.81 45.9402 139.862 42.6601 139.972 34.0902L138.165 8.71144L139.972 10.2261ZM139.511 9.40944L138.401 8.47878C138.296 8.3921 138.143 8.37157 138.015 8.42631C137.887 8.48106 137.809 8.60195 137.819 8.73197L139.624 34.0994C139.568 38.3079 138.8 41.2208 137.641 43.1596C136.522 45.0301 135.039 45.9722 133.505 46.2824C121.901 48.6204 118.923 53.4973 115.994 56.8253C114.135 58.9376 112.298 60.3974 108.054 60.037C105.969 59.8614 104.749 58.3331 104.317 56.1364C103.783 53.4289 104.43 49.7222 106.222 46.068C105.13 49.5055 104.706 52.1925 104.932 54.0493C105.143 55.8103 105.938 56.8664 107.226 57.2108C108.538 57.5621 110.448 57.1447 112.92 55.8262C112.958 55.808 112.988 55.7829 113.015 55.7532C117.701 50.5228 123.992 44.6013 133.254 42.3499C135.194 41.8777 137.802 39.9502 137.538 37.343C135.812 20.1759 134.542 6.46462 135.518 1.98239C135.628 1.476 135.764 1.09507 135.94 0.860121C136.012 0.762036 136.09 0.693605 136.18 0.679919C138.075 2.8469 139.039 6.23424 139.511 9.40944Z" fill="#024413"/>
<path fill-rule="evenodd" clip-rule="evenodd" d="M97.3657 7.42584C96.7518 8.16652 96.3585 9.05078 96.1714 10.0604C99.9919 13.153 101.385 17.3942 100.817 22.4377C103.057 16.5943 101.709 11.4506 97.3657 7.42584Z" fill="#024413" stroke="#024413" stroke-width="0.722667" stroke-miterlimit="1.5" stroke-linecap="round" stroke-linejoin="round"/>
<path fill-rule="evenodd" clip-rule="evenodd" d="M232.833 26.9412C231.963 25.1465 230.621 23.3519 228.481 21.5549C227.64 22.1637 227.414 24.2435 227.527 25.1895C227.975 28.8649 230.211 35.5005 232.698 39.719C233.607 41.2648 228.918 42.935 226.849 41.473C224.959 40.14 225.156 39.2166 225.215 36.9648C222.993 38.0104 220.909 43.8516 216.646 42.2266C214.911 41.5635 214.559 39.0944 215.695 37.5894C207.725 45.7866 203.756 45.0963 200.185 37.5894C199.686 36.537 192.319 39.6308 192.978 49.4914C184.46 53.8932 174.716 63.4596 170.622 61.5133C169.246 60.8592 167.201 58.372 171.892 48.1131C167.24 54.1082 164.48 62.5385 168.764 65.0257C171.224 66.4538 176.272 65.6277 179.51 62.6449C188.274 54.5744 190.645 53.2595 194.337 53.2505C199.603 62.4163 206.897 57.211 203.586 50.3672C201.493 46.0423 196.762 49.8693 194.744 48.1131C193.948 44.2499 196.902 42.2063 198.961 41.8487C202.778 49.9915 208.022 48.6585 213.382 41.9754C214.06 44.1073 213.881 45.1461 215.149 46.2347C216.277 47.2011 218.354 47.6016 220.59 46.6104C223.038 45.5263 223.178 43.2699 223.583 41.8487C224.529 43.7656 225.402 45.0692 226.168 45.4833C228.881 46.9453 231.118 46.1261 232.698 44.2295C235.812 39.3728 233.71 34.3056 230.793 27.1924L232.833 26.9412ZM200.281 51.7794C201.274 52.0239 201.955 52.6553 201.802 53.1894C201.648 53.7235 200.714 53.9611 199.721 53.7167C198.728 53.4745 198.047 52.8409 198.202 52.3067C198.354 51.7726 199.288 51.5373 200.281 51.7794Z" fill="#024413"/>
<path fill-rule="evenodd" clip-rule="evenodd" d="M232.833 26.9412C231.963 25.1465 230.621 23.3519 228.481 21.5549C227.64 22.1637 227.414 24.2435 227.527 25.1895C227.975 28.8649 230.211 35.5005 232.698 39.719C233.607 41.2648 228.918 42.935 226.849 41.473C224.959 40.14 225.156 39.2166 225.215 36.9648C222.993 38.0104 220.909 43.8516 216.646 42.2266C214.911 41.5635 214.559 39.0944 215.695 37.5894C207.725 45.7866 203.756 45.0963 200.185 37.5894C199.686 36.537 192.319 39.6308 192.978 49.4914C184.46 53.8932 174.716 63.4596 170.622 61.5133C169.246 60.8592 167.201 58.372 171.892 48.1131C167.24 54.1082 164.48 62.5385 168.764 65.0257C171.224 66.4538 176.272 65.6277 179.51 62.6449C188.274 54.5744 190.645 53.2595 194.337 53.2505C199.603 62.4163 206.897 57.211 203.586 50.3672C201.493 46.0423 196.762 49.8693 194.744 48.1131C193.948 44.2499 196.902 42.2063 198.961 41.8487C202.778 49.9915 208.022 48.6585 213.382 41.9754C214.06 44.1073 213.881 45.1461 215.149 46.2347C216.277 47.2011 218.354 47.6016 220.59 46.6104C223.038 45.5263 223.178 43.2699 223.583 41.8487C224.529 43.7656 225.402 45.0692 226.168 45.4833C228.881 46.9453 231.118 46.1261 232.698 44.2295C235.812 39.3728 233.71 34.3056 230.793 27.1924L232.833 26.9412ZM199.883 37.732C200.79 39.6398 201.729 41.1131 202.746 42.1225C203.815 43.1839 204.975 43.7452 206.277 43.7927C207.305 43.8289 208.428 43.5415 209.671 42.8965C211.16 42.127 212.836 40.837 214.751 38.9926C214.648 39.6217 214.702 40.269 214.913 40.8416C215.188 41.5952 215.731 42.2153 216.515 42.5163C218.803 43.3876 220.521 42.2945 221.951 40.8054C222.752 39.9703 223.46 39.0152 224.141 38.2706C224.384 38.0058 224.62 37.7659 224.856 37.5758C224.797 39.5244 224.822 40.4387 226.64 41.7219C227.279 42.1723 228.137 42.3624 229.029 42.3511C230.324 42.333 231.681 41.8917 232.447 41.2965C233.103 40.7873 233.347 40.1626 232.995 39.5697C230.528 35.3851 228.309 28.7993 227.866 25.1533C227.8 24.6147 227.854 23.6868 228.078 22.906C228.181 22.5507 228.311 22.2225 228.493 21.994C230.307 23.5578 231.511 25.1239 232.329 26.6878L230.749 26.8824C230.646 26.8937 230.555 26.9503 230.501 27.0318C230.447 27.1132 230.437 27.2151 230.474 27.3033C231.924 30.8384 233.175 33.8642 233.671 36.6095C234.158 39.289 233.919 41.697 232.415 44.053C231.678 44.9334 230.793 45.5716 229.773 45.8115C228.754 46.0536 227.604 45.8929 226.34 45.2117C226.065 45.0646 225.78 44.7817 225.475 44.3947C224.979 43.7588 224.451 42.8467 223.893 41.7197C223.834 41.5997 223.699 41.5273 223.554 41.5364C223.411 41.5477 223.291 41.6427 223.254 41.7695C223.094 42.333 222.974 43.03 222.735 43.7316C222.396 44.7206 221.809 45.7209 220.442 46.3275C218.363 47.2508 216.429 46.9046 215.382 46.0038C214.8 45.5059 214.554 45.0194 214.372 44.4128C214.173 43.7497 214.048 42.9554 213.709 41.8872C213.672 41.7717 213.569 41.688 213.441 41.6654C213.313 41.645 213.183 41.6925 213.107 41.7898C211.529 43.7588 209.964 45.257 208.44 46.1713C206.983 47.0449 205.572 47.3776 204.235 47.0336C202.404 46.5628 200.746 44.8632 199.274 41.7265C199.212 41.5907 199.055 41.5137 198.9 41.5409C196.715 41.9211 193.567 44.0756 194.41 48.172C194.425 48.2376 194.459 48.2964 194.511 48.3417C194.975 48.7468 195.563 48.903 196.229 48.9188C196.826 48.9346 197.492 48.8351 198.182 48.7287C199.495 48.5273 200.905 48.2783 202.038 49.0025C202.51 49.3058 202.93 49.7811 203.277 50.4962C204.84 53.7258 203.972 56.5819 202.019 57.5369C201.075 57.9963 199.886 57.9873 198.632 57.3536C197.303 56.6814 195.914 55.3235 194.639 53.1034C194.58 52.9993 194.462 52.9359 194.337 52.9359C190.591 52.9472 188.156 54.2395 179.27 62.4231C177.385 64.1589 174.868 65.1411 172.642 65.3516C171.197 65.4874 169.875 65.2996 168.946 64.7609C167.331 63.8217 166.815 61.975 167.014 59.7503C167.253 57.0979 168.511 53.9181 170.31 50.9873C168.96 54.4794 168.565 56.8376 168.641 58.4286C168.747 60.5945 169.715 61.4363 170.464 61.7917C171.012 62.0519 171.651 62.1357 172.367 62.0565C173.364 61.9501 174.529 61.5269 175.809 60.8819C180.616 58.458 187.18 52.8454 193.142 49.7652C193.258 49.7064 193.324 49.5932 193.317 49.4733C192.867 42.7517 196.212 39.246 198.448 38.1077C198.893 37.8814 199.286 37.7501 199.588 37.7161C199.682 37.7071 199.763 37.7048 199.831 37.7161C199.846 37.7207 199.871 37.7275 199.883 37.732ZM200.37 51.4762C199.686 51.311 199.03 51.3494 198.578 51.5327C198.207 51.6821 197.959 51.9265 197.873 52.2275C197.787 52.5263 197.868 52.8522 198.109 53.1509C198.406 53.5175 198.952 53.8525 199.635 54.02C200.316 54.1874 200.972 54.1467 201.424 53.9634C201.795 53.814 202.043 53.5696 202.129 53.2709C202.218 52.9699 202.134 52.6462 201.893 52.3452C201.598 51.9786 201.05 51.6436 200.37 51.4762ZM200.281 51.7794C201.274 52.0239 201.955 52.6553 201.802 53.1894C201.648 53.7235 200.714 53.9611 199.721 53.7167C198.728 53.4745 198.047 52.8409 198.202 52.3067C198.354 51.7726 199.288 51.5373 200.281 51.7794Z" fill="#024413"/>
<path fill-rule="evenodd" clip-rule="evenodd" d="M39.2028 39.0852C37.6977 31.187 39.8975 26.5905 48.8151 27.9831C55.7841 29.0708 60.5089 31.9493 67.6331 31.7809C69.3846 31.74 68.3844 33.8516 66.8152 35.8108C58.92 36.5412 51.9978 42.6509 44.4523 44.1254L42.2698 44.2506L41.4716 45.8866L40.4986 44.2506C34.5864 43.0309 33.1699 36.7369 30.3049 35.0553C25.792 36.853 25.8733 41.991 27.8169 41.9842C33.1945 41.2993 35.3081 41.1104 36.2368 45.1312C36.4807 46.1825 36.6482 47.1063 36.2368 48.2805C34.2686 53.9146 30.1054 52.1397 26.3167 46.517C20.6065 49.2271 15.4924 53.1181 10.4227 57.098C6.22013 60.3951 0.428634 58.4291 0 51.052C0.169976 47.6501 1.41893 44.2506 4.22722 40.8487C-2.33285 54.7406 2.83293 59.064 12.2727 51.5549C16.3768 48.2918 20.6213 45.2472 25.3633 42.99C24.6613 39.5221 25.6097 36.2568 28.4993 32.2838C29.9083 30.1608 31.5884 30.1266 32.9975 32.2838C34.3474 35.1327 36.4906 37.4992 39.2028 39.0852ZM32.4112 45.4179C33.4064 45.6637 34.0912 46.2985 33.936 46.8355C33.7808 47.3725 32.8472 47.6092 31.8495 47.3657C30.8543 47.12 30.1719 46.4851 30.3271 45.9481C30.4823 45.4111 31.4159 45.1721 32.4112 45.4179ZM42.8166 39.5904C48.6131 39.554 54.0055 37.2808 59.3166 34.5525C51.2908 32.1609 42.8216 29.2142 40.4986 33.9221C39.6487 35.6447 41.8017 38.0362 42.8166 39.5904Z" fill="#024413"/>
<path fill-rule="evenodd" clip-rule="evenodd" d="M39.2028 39.0852C37.6977 31.187 39.8975 26.5905 48.8151 27.9831C55.7841 29.0708 60.5089 31.9493 67.6331 31.7809C69.3846 31.74 68.3844 33.8516 66.8152 35.8108C58.92 36.5412 51.9978 42.6509 44.4523 44.1254L42.2698 44.2506L41.4716 45.8866L40.4986 44.2506C34.5864 43.0309 33.1699 36.7369 30.3049 35.0553C25.792 36.853 25.8733 41.991 27.8169 41.9842C33.1945 41.2993 35.3081 41.1104 36.2368 45.1312C36.4807 46.1825 36.6482 47.1063 36.2368 48.2805C34.2686 53.9146 30.1054 52.1397 26.3167 46.517C20.6065 49.2271 15.4924 53.1181 10.4227 57.098C6.22013 60.3951 0.428634 58.4291 0 51.052C0.169976 47.6501 1.41893 44.2506 4.22722 40.8487C-2.33285 54.7406 2.83293 59.064 12.2727 51.5549C16.3768 48.2918 20.6213 45.2472 25.3633 42.99C24.6613 39.5221 25.6097 36.2568 28.4993 32.2838C29.9083 30.1608 31.5884 30.1266 32.9975 32.2838C34.3474 35.1327 36.4906 37.4992 39.2028 39.0852ZM39.0205 39.3515C39.1363 39.4197 39.2816 39.4174 39.3949 39.3469C39.5058 39.2786 39.5625 39.1535 39.5403 39.0306C39.0969 36.7028 38.9762 34.664 39.2668 32.9915C39.5477 31.3759 40.2128 30.1062 41.3583 29.2597C42.9127 28.1151 45.3195 27.7556 48.7584 28.2949C52.2269 28.8364 55.1362 29.824 58.0652 30.6545C61.041 31.4988 64.039 32.1814 67.6429 32.0949C67.8671 32.0904 68.0272 32.1177 68.1208 32.211C68.212 32.2997 68.2243 32.434 68.212 32.5955C68.1578 33.3191 67.4828 34.4296 66.6305 35.5127C62.6939 35.9109 58.9963 37.6107 55.3406 39.4106C51.717 41.1946 48.1401 43.0764 44.4055 43.8114L42.25 43.9366C42.1244 43.9434 42.0111 44.0139 41.9594 44.1209L41.442 45.1835L40.7966 44.0981C40.7498 44.0185 40.6685 43.9616 40.5725 43.9434C37.1237 43.2312 35.2663 40.7258 33.7168 38.4959C32.6206 36.9235 31.6672 35.4809 30.4872 34.7891C30.3936 34.7345 30.2729 34.7254 30.1695 34.7663C26.8217 36.0998 25.8831 39.1831 26.3117 40.9011C26.5285 41.7657 27.0926 42.3005 27.8194 42.2982C27.8341 42.2982 27.8489 42.2982 27.8637 42.2959C29.7211 42.0593 31.1844 41.8818 32.3397 41.9228C33.4039 41.9592 34.1922 42.1822 34.7736 42.7624C35.2909 43.2789 35.6407 44.0617 35.9043 45.1972C36.1334 46.1938 36.3034 47.0699 35.9141 48.1849C35.185 50.2692 34.1799 51.2978 32.9556 51.4001C32.2289 51.4593 31.4455 51.1931 30.6301 50.6674C29.3171 49.8255 27.9401 48.3305 26.6074 46.3508C26.5137 46.212 26.3191 46.162 26.1615 46.2371C20.4266 48.9586 15.2929 52.8633 10.201 56.8568C8.22042 58.4109 5.86786 58.7431 3.95871 57.7988C2.01261 56.8386 0.551806 54.5858 0.342415 51.052C0.468049 48.5831 1.17505 46.1165 2.64817 43.6476C1.52732 46.5147 0.992756 48.8744 0.945952 50.6993C0.906537 52.3832 1.2859 53.6278 1.98551 54.4243C2.71468 55.2571 3.79612 55.628 5.16825 55.4915C7.07493 55.3049 9.59254 54.1034 12.4944 51.7938C16.5788 48.5467 20.8011 45.5157 25.5185 43.2698C25.6516 43.2061 25.7255 43.0696 25.6984 42.9331C25.0111 39.538 25.9545 36.3478 28.7826 32.4613C28.785 32.4567 28.7875 32.4522 28.7899 32.4499C29.4132 31.5101 30.066 30.9981 30.7508 30.9936C31.4283 30.989 32.0761 31.4896 32.6945 32.4294C34.074 35.3284 36.259 37.7359 39.0205 39.3515ZM32.4998 45.113C31.8175 44.9446 31.1597 44.9856 30.704 45.1699C30.332 45.3201 30.0832 45.5658 29.997 45.8662C29.9108 46.1688 29.9946 46.4942 30.236 46.7968C30.5316 47.1655 31.0809 47.5022 31.7633 47.6706C32.4457 47.8367 33.1034 47.7981 33.5591 47.6137C33.9311 47.4636 34.1774 47.2178 34.2661 46.9152C34.3523 46.6148 34.2686 46.2871 34.0272 45.9868C33.7316 45.6181 33.1822 45.2814 32.4998 45.113ZM32.4112 45.4179C33.4064 45.6637 34.0912 46.2985 33.936 46.8355C33.7808 47.3725 32.8472 47.6092 31.8495 47.3657C30.8543 47.12 30.1719 46.4851 30.3271 45.9481C30.4823 45.4111 31.4159 45.1721 32.4112 45.4179ZM42.5235 39.7519C42.5851 39.8475 42.6984 39.9067 42.8191 39.9044C48.6722 39.868 54.1188 37.5834 59.4816 34.8278C59.5999 34.7663 59.6689 34.6457 59.6541 34.5206C59.6418 34.3954 59.5506 34.2908 59.4201 34.2521C54.5721 32.8072 49.559 31.1688 45.8195 31.1074C43.1911 31.0619 41.176 31.79 40.1882 33.7924C39.8113 34.5547 39.9443 35.4376 40.3384 36.3319C40.8804 37.5584 41.9076 38.8076 42.5235 39.7519ZM42.8166 39.5904C48.6131 39.554 54.0055 37.2808 59.3166 34.5525C51.2908 32.1609 42.8216 29.2142 40.4986 33.9221C39.6487 35.6447 41.8017 38.0362 42.8166 39.5904Z" fill="#024413"/>
<path fill-rule="evenodd" clip-rule="evenodd" d="M100.251 27.2692C100.519 26.2578 102.208 24.9471 104.666 24.3257C106.68 23.8155 123.838 24.8723 132.606 28.0901C134.009 28.6049 133.081 30.7773 131.788 31.8568L114.875 38.4081L114.902 38.4422C115.222 38.8594 115.527 39.2857 115.805 39.7279C116.01 40.0522 116.202 40.3856 116.367 40.728C116.443 40.8867 116.515 41.0455 116.579 41.2087C116.628 41.3357 116.672 41.4605 116.712 41.5897C116.741 41.6872 116.768 41.787 116.793 41.8845C116.81 41.9684 116.827 42.0501 116.84 42.134C116.911 42.592 116.886 43.0955 116.596 43.4901C116.549 43.5513 116.497 43.6102 116.441 43.6624C116.359 43.7395 116.266 43.8075 116.165 43.8642C116.015 43.9459 115.85 44.0048 115.68 44.0411C115.443 44.0955 115.197 44.1091 114.953 44.0978C114.599 44.0797 114.249 44.0116 113.914 43.9096C113.387 43.7508 112.888 43.5127 112.434 43.2202C111.708 42.7531 111.085 42.143 110.642 41.4378C110.487 41.1906 110.356 40.9344 110.248 40.669L110.238 40.6441L109.982 40.7688C105.87 42.9912 101.63 44.4765 97.0326 43.9073C97.0302 48.0005 97.0745 51.3159 95.5331 52.9441C78.4938 70.9473 53.09 66.1738 61.7328 43.5309C56.1014 60.1508 71.4983 65.1103 92.992 52.4429C94.8067 50.91 95.7916 49.1366 95.671 47.0458C95.2007 43.2043 90.6257 41.0228 94.5802 37.0022C95.0899 41.3063 100.475 40.2064 107.579 37.712C101.265 34.3671 97.6729 31.4962 100.251 27.2692ZM112.122 36.0429C116.699 34.3172 121.661 32.3874 126.337 31.1039C120.282 29.1355 109.677 28.0674 101.76 28.5867L101.667 28.5935C106.042 31.6187 110.696 34.1539 112.122 36.0429Z" fill="#024413"/>
<path fill-rule="evenodd" clip-rule="evenodd" d="M109.938 40.7915C109.93 40.7802 109.923 40.7665 109.918 40.7529L109.957 40.7802H109.96L109.918 40.7529C109.913 40.7416 109.908 40.7303 109.906 40.7189C109.869 40.5806 109.94 40.4332 110.078 40.3652L109.822 40.4922C109.817 40.4922 109.812 40.4944 109.81 40.4967C105.764 42.6828 101.598 44.1545 97.0794 43.5944C96.9809 43.583 96.8825 43.6102 96.8086 43.6692C96.7347 43.7304 96.6928 43.8166 96.6928 43.9073C96.6904 46.3428 96.7076 48.5017 96.39 50.1866C96.1881 51.2524 95.8581 52.1254 95.277 52.7377C89.2074 59.1508 82.0691 62.6521 75.8099 63.4503C71.6904 63.9742 67.9551 63.3279 65.1849 61.5523C62.0923 59.5726 60.2234 56.2005 60.3317 51.5336C60.6937 54.2412 61.9421 56.332 63.9021 57.7425C66.0714 59.305 69.1271 60.0465 72.8625 59.8628C78.3682 59.5907 85.3735 57.3049 93.1742 52.706C93.1914 52.6969 93.2062 52.6856 93.221 52.6742C95.1194 51.071 96.1388 49.2137 96.0108 47.0277C96.0108 47.0209 96.0108 47.0163 96.0083 47.0095C95.8163 45.4335 94.9594 44.125 94.2478 42.8642C93.6593 41.821 93.1693 40.8119 93.3687 39.6781C93.4746 39.068 93.7848 38.4263 94.3709 37.721C94.595 38.5397 95.0259 39.1293 95.6267 39.5329C96.3654 40.0318 97.3774 40.2472 98.6135 40.22C100.94 40.1701 104.104 39.2676 107.702 38.0045C107.825 37.9614 107.909 37.8571 107.921 37.7369C107.931 37.6144 107.864 37.4988 107.751 37.4398C105.254 36.1178 103.186 34.8728 101.77 33.5847C100.748 32.6573 100.069 31.7116 99.8372 30.6934C99.6082 29.6866 99.8225 28.614 100.546 27.4234C100.561 27.3985 100.573 27.3713 100.581 27.344C100.677 26.9857 100.982 26.5934 101.443 26.2079C102.191 25.5775 103.344 24.9856 104.757 24.6273C105.348 24.4777 107.273 24.4777 109.913 24.6183C116.17 24.9562 126.371 26.1399 132.48 28.3826C132.889 28.5323 133 28.8883 132.958 29.2965C132.877 30.0562 132.298 30.9882 131.601 31.5869C131.601 31.5892 114.744 38.1179 114.744 38.1179C114.594 38.1768 114.51 38.3242 114.542 38.4694C114.552 38.5147 114.572 38.5555 114.599 38.5918L114.623 38.6236C114.939 39.0318 115.239 39.4513 115.512 39.8844C115.709 40.1996 115.894 40.5239 116.054 40.855C116.128 41.0069 116.197 41.1611 116.258 41.3153C116.303 41.4355 116.347 41.5534 116.384 41.6759C116.411 41.7666 116.438 41.8573 116.458 41.9503C116.475 42.0274 116.49 42.1022 116.502 42.1793C116.561 42.5603 116.556 42.9844 116.315 43.3132C116.281 43.3585 116.241 43.4039 116.199 43.4424C116.135 43.5014 116.064 43.5513 115.988 43.5944C115.869 43.6601 115.736 43.7055 115.601 43.7372C115.394 43.7826 115.182 43.7939 114.971 43.7826C114.648 43.769 114.328 43.7032 114.02 43.6125C113.525 43.4628 113.057 43.2361 112.629 42.9617C111.944 42.5217 111.356 41.948 110.937 41.279C110.792 41.05 110.669 40.8074 110.566 40.5579C110.605 40.6532 110.59 40.762 110.529 40.8459C110.489 40.8981 110.438 40.9366 110.376 40.9593C110.455 41.1226 110.543 41.2813 110.642 41.4378C111.085 42.143 111.708 42.7531 112.434 43.2202C112.888 43.5127 113.387 43.7508 113.914 43.9096C114.249 44.0116 114.599 44.0797 114.953 44.0978C115.197 44.1091 115.443 44.0955 115.68 44.0411C115.85 44.0048 116.015 43.9459 116.165 43.8642C116.266 43.8075 116.359 43.7395 116.441 43.6624C116.497 43.6102 116.549 43.5513 116.596 43.4901C116.886 43.0955 116.911 42.592 116.84 42.134C116.827 42.0501 116.81 41.9684 116.793 41.8845C116.768 41.787 116.741 41.6872 116.712 41.5897C116.672 41.4605 116.628 41.3357 116.579 41.2087C116.515 41.0455 116.443 40.8867 116.367 40.728C116.202 40.3856 116.01 40.0522 115.805 39.7279C115.527 39.2857 115.222 38.8594 114.902 38.4422L114.875 38.4081L131.788 31.8568C133.081 30.7773 134.009 28.6049 132.606 28.0901C123.838 24.8723 106.68 23.8155 104.666 24.3257C102.208 24.9471 100.519 26.2578 100.251 27.2692C97.6729 31.4962 101.265 34.3671 107.579 37.712C100.475 40.2064 95.0899 41.3063 94.5802 37.0022C90.6257 41.0228 95.2007 43.2043 95.671 47.0458C95.7916 49.1366 94.8067 50.91 92.992 52.4429C71.4983 65.1103 56.1014 60.1508 61.7328 43.5309C53.09 66.1738 78.4938 70.9473 95.5331 52.9441C97.0745 51.3159 97.0302 48.0005 97.0326 43.9073C101.613 44.4742 105.838 43.0025 109.938 40.7915ZM110.366 40.9366L110.361 40.9298L110.396 40.9208L110.366 40.9366ZM110.292 40.7779C110.361 40.5829 110.474 40.3289 110.558 40.5352C110.58 40.5897 110.438 40.7665 110.339 40.8799L110.332 40.8663C110.327 40.8505 110.317 40.8323 110.31 40.8164L110.292 40.7779ZM111.841 36.2221C111.935 36.3445 112.105 36.3899 112.252 36.3332C116.82 34.612 121.769 32.6845 126.435 31.4032C126.576 31.3647 126.674 31.2468 126.677 31.1107C126.681 30.9746 126.59 30.8522 126.45 30.8068C120.361 28.8271 109.696 27.75 101.736 28.2738L101.642 28.2806C101.502 28.2897 101.381 28.3781 101.339 28.5051C101.3 28.6298 101.349 28.7659 101.462 28.843C104.087 30.6594 106.813 32.299 108.881 33.7276C110.223 34.6551 111.287 35.4873 111.841 36.2221ZM112.122 36.0429C116.699 34.3172 121.661 32.3874 126.337 31.1039C120.282 29.1355 109.677 28.0674 101.76 28.5867L101.667 28.5935C106.042 31.6187 110.696 34.1539 112.122 36.0429Z" fill="#024413"/>
</svg>
